<?xml version="1.0" encoding="utf-8"?>
<!-- Generator: Adobe Illustrator 19.0.0, SVG Export Plug-In . SVG Version: 6.00 Build 0)  -->
<svg version="1.1" id="Layer_1" xmlns="http://www.w3.org/2000/svg" xmlns:xlink="http://www.w3.org/1999/xlink" x="0px" y="0px"
	 viewBox="321 -281 792 612" style="enable-background:new 321 -281 792 612;" xml:space="preserve">
<style type="text/css">
	.st0{fill:#E44F26;}
	.st1{fill:#F1662A;}
	.st2{fill:#EBEBEB;}
	.st3{fill:#010101;}
	.st4{fill:#FFFFFF;}
	.st5{fill:#131313;}
	.st6{fill:#1572B6;}
	.st7{fill:#33A9DC;}
	.st8{stroke:#000000;stroke-width:3;stroke-miterlimit:10;}
	.st9{font-family:'ArialMT';}
	.st10{font-size:17px;}
	.st11{fill:#63A814;}
	.st12{fill:#8ACF17;}
</style>
<polygon class="st0" points="895,211.2 888,132.2 965.4,132.2 958.4,211.2 926.7,220 "/>
<polygon class="st1" points="926.7,213.3 952.3,206.2 958.4,138.7 926.7,138.7 "/>
<polygon class="st2" points="926.7,168 913.9,168 913,158 926.7,158 926.7,148.4 926.7,148.4 902.4,148.4 902.6,151 905,177.7 
	926.7,177.7 "/>
<polygon class="st2" points="926.7,193.1 926.7,193.2 915.9,190.2 915.2,182.5 909.9,182.5 905.5,182.5 906.8,197.7 926.7,203.2 
	926.7,203.2 "/>
<path class="st3" d="M895.2,110.7h4.9v4.9h4.5v-4.9h4.9v14.7h-4.9v-4.9h-4.5v4.9h-4.9V110.7L895.2,110.7z"/>
<path class="st3" d="M916,115.6h-4.3v-4.9h13.6v4.9H921v9.9H916L916,115.6L916,115.6z"/>
<path class="st3" d="M927.5,110.7h5.1l3.2,5.2l3.2-5.2h5.1v14.7h-4.9v-7.3l-3.4,5.2h-0.1l-3.4-5.2v7.3h-4.8L927.5,110.7L927.5,110.7
	z"/>
<path class="st3" d="M946.5,110.7h4.9v9.9h6.9v4.9h-11.9L946.5,110.7L946.5,110.7z"/>
<polygon class="st4" points="926.7,168 926.7,177.7 938.6,177.7 937.5,190.2 926.7,193.2 926.7,203.2 946.5,197.7 946.7,196.1 
	949,170.6 949.2,168 946.6,168 "/>
<polygon class="st4" points="926.7,148.4 926.7,154.4 926.7,158 926.7,158 950.1,158 950.1,158 950.1,158 950.3,155.9 950.7,151 
	951,148.4 "/>
<g>
	<path class="st5" d="M1053.8,114.8h-6.4l6.7,7.3v3.5h-13.8v-4h6.7l-6.7-7.3v-3.5h13.5V114.8L1053.8,114.8z M1037.5,114.8h-6.4
		l6.7,7.3v3.5H1024v-4h6.7l-6.7-7.3v-3.5h13.5V114.8L1037.5,114.8z M1021.5,114.9h-6.9v6.3h6.9v4.2h-11.9v-14.7h11.9V114.9z"/>
</g>
<polygon class="st6" points="1000.1,211.2 993.1,132.2 1070.5,132.2 1063.5,211.2 1031.8,220 "/>
<polygon class="st7" points="1031.8,213.3 1057.4,206.2 1063.5,138.7 1031.8,138.7 "/>
<g>
	<polygon class="st4" points="1031.8,167.3 1044.6,167.3 1045.5,157.4 1031.8,157.4 1031.8,147.7 1031.8,147.7 1056.1,147.7 
		1055.9,150.3 1053.5,177 1031.8,177 	"/>
	<polygon class="st2" points="1031.9,192.5 1031.8,192.5 1021,189.6 1020.3,181.8 1015.1,181.8 1010.6,181.8 1012,197.1 
		1031.8,202.6 1031.9,202.6 	"/>
	<polygon class="st4" points="1043.8,176.6 1042.6,189.6 1031.8,192.5 1031.8,202.6 1051.7,197.1 1051.8,195.4 1053.5,176.6 	"/>
	<polygon class="st2" points="1031.8,147.7 1031.8,153.7 1031.8,157.3 1031.8,157.4 1008.5,157.4 1008.5,157.4 1008.4,157.4 
		1008.2,155.2 1007.8,150.3 1007.6,147.7 	"/>
	<polygon class="st2" points="1031.8,167.3 1031.8,173.3 1031.8,177 1031.8,177 1021.2,177 1021.2,177 1021.2,177 1021,174.8 
		1020.5,169.9 1020.3,167.3 	"/>
</g>
<text transform="matrix(1 0 0 1 780.4071 124.4693)" class="st8 st9 st10">X </text>
<path class="st3" d="M823.3,110.7h4.9v9.9h6.9v4.9h-11.9L823.3,110.7L823.3,110.7z"/>
<path class="st3" d="M800.4,110.7h5.1l3.2,5.2l3.2-5.2h5.1v14.7h-4.9v-7.3l-3.4,5.2h-0.1l-3.4-5.2v7.3h-4.8L800.4,110.7L800.4,110.7
	z"/>
<path class="st11" d="M776.5,213.3l-7.1-80.3h78.8l-7.1,80.3l-32.2,9L776.5,213.3z"/>
<path class="st12" d="M808.7,215.4l26-7.2l6.1-68.6h-32.2V215.4z"/>
<path class="st2" d="M619-121h-2.4c1.4,1.7,2.8,3.4,4.1,5.1C620.1-117.5,619.5-119.2,619-121z"/>
<polygon class="st2" points="797.2,159 796.4,150.7 786.1,150.7 787.5,166.9 808.7,172.8 808.7,162.1 "/>
<polygon class="st4" points="819.5,159 820.2,150.7 830.6,150.7 829.2,166.9 808,172.8 808,162.1 "/>
<polygon class="st2" points="797,187.4 796.3,195.7 785.9,195.7 787.4,179.4 808.6,173.5 808.6,184.3 "/>
<polygon class="st4" points="819.4,187.4 820.1,195.7 830.5,195.7 829,179.4 807.8,173.5 807.9,184.3 "/>
</svg>
