<?xml version="1.0" encoding="utf-8"?>
<!-- Generator: Adobe Illustrator 18.0.0, SVG Export Plug-In . SVG Version: 6.00 Build 0)  -->
<!DOCTYPE svg PUBLIC "-//W3C//DTD SVG 1.1//EN" "http://www.w3.org/Graphics/SVG/1.1/DTD/svg11.dtd">
<svg version="1.1" xmlns="http://www.w3.org/2000/svg" xmlns:xlink="http://www.w3.org/1999/xlink" x="0px" y="0px"
	 viewBox="0 0 30 30" enable-background="new 0 0 30 30" xml:space="preserve">
<g id="Background_xA0_Image_1_">
</g>
<g id="Row_1_1_">
	<g>
		<path fill="#FFFFFF" d="M22.8,14.8c0,4.2-3.4,7.7-7.7,7.7S7.5,19,7.5,14.8c0-0.5,0-1,0.2-1.5H2.5v10.2c0,2.2,1.8,3.9,3.9,3.9h17.4
			c2.2,0,3.9-1.8,3.9-3.9V13.2h-5.1C22.6,13.7,22.8,14.2,22.8,14.8z M23.8,2H6.4C4.2,2,2.5,3.8,2.5,5.9v4.3h6.4
			c1.3-2,3.6-3.3,6.3-3.3c2.6,0,4.8,1.3,6.3,3.3H28V5.9C27.7,3.8,25.9,2,23.8,2z M25.8,7c0,0.5-0.3,0.8-0.8,0.8h-2.1
			c-0.4,0-0.8-0.3-0.8-0.8V4.9c0-0.5,0.3-0.8,0.8-0.8H25c0.4,0,0.8,0.3,0.8,0.8V7z M19.8,14.8c0-2.5-2.1-4.7-4.7-4.7
			s-4.7,2.1-4.7,4.7s2.1,4.7,4.7,4.7S19.8,17.3,19.8,14.8z"/>
	</g>
</g>
</svg>
