<?xml version="1.0" encoding="utf-8"?>
<!-- Generator: Adobe Illustrator 18.0.0, SVG Export Plug-In . SVG Version: 6.00 Build 0)  -->
<!DOCTYPE svg PUBLIC "-//W3C//DTD SVG 1.1//EN" "http://www.w3.org/Graphics/SVG/1.1/DTD/svg11.dtd">
<svg version="1.1" xmlns="http://www.w3.org/2000/svg" xmlns:xlink="http://www.w3.org/1999/xlink" x="0px" y="0px"
	 viewBox="0 0 30 30" enable-background="new 0 0 30 30" xml:space="preserve">
<g id="Background_xA0_Image_1_">
</g>
<g id="Row_1_1_">
	<g>
		<path fill="#FFFFFF" d="M18.4,13.3L18.4,13.3z"/>
		<path fill="#FFFFFF" d="M27.2,9.4c-1.1-2.4-2.7-4.5-4.9-6S17.5,1,14.7,1c-2,0-3.8,0.5-5.2,1c-2.4,1-4.5,2.7-6,5S1,11.8,1,14.7
			c0,1.9,0.4,3.8,1.1,5.2c1.1,2.4,2.7,4.5,4.9,6s4.8,2.4,7.7,2.4c1.9,0,3.8-0.5,5.2-1c2.4-1.1,4.5-2.7,6-5s2.4-4.8,2.4-7.6
			C28.3,12.7,28,10.9,27.2,9.4z M21.2,22.9c-0.3-1.4-0.8-3.6-1.8-6.5c0.4,0,1.1-0.2,1.5-0.2c1.2,0,2.2,0.2,3.1,0.3
			c0.3,0,0.6,0.2,0.9,0.2c-0.3,1.3-0.8,2.4-1.5,3.6C22.9,21.2,22.2,22.2,21.2,22.9z M25.2,13.8c-0.3,0-0.6-0.2-1.1-0.2
			c-0.9-0.1-2.1-0.3-3.4-0.3c-0.8,0-1.5,0-2.2,0.2v-0.2c-0.2-0.3-0.3-0.8-0.5-1c2-0.9,3.5-2,4.4-2.7c0.4-0.5,0.8-0.8,1.1-1
			C24.4,10,25,11.8,25.2,13.8z M20.1,7.5C19.3,8,18.1,9,16.5,9.5c-0.9-1.6-1.8-3-2.5-4C13.6,5,13.3,4.6,13,4.2C13.4,4,14.1,4,14.7,4
			c2.5,0,4.8,0.9,6.6,2.2C21,6.7,20.7,7,20.1,7.5z M9.7,5.4c0.6,0.9,2,2.9,3.5,5.2c-3.8,0.9-7.2,1.1-8.7,1.2c0.5-1.4,1.1-2.5,2-3.6
			C7.3,7,8.5,6,9.7,5.4z M8.2,14.7c2-0.2,4.2-0.6,6.5-1.2c0.1,0.3,0.3,0.6,0.4,0.9c-1.5,0.5-2.8,1.2-3.9,2c-1.8,1.2-3,2.5-3.9,3.8
			C7,20.5,6.7,21,6.4,21.3c-1.3-1.7-2.1-3.9-2.2-6.2C4.9,15,6.4,14.8,8.2,14.7z M10.5,21c1.2-1.2,3.2-2.7,5.9-3.8
			c1.2,3.3,1.8,6,2.1,7.3c-1.2,0.5-2.4,0.6-3.8,0.6c-2.2,0-4.4-0.8-6.2-2C8.8,22.8,9.4,21.9,10.5,21z"/>
	</g>
</g>
</svg>
