<?xml version="1.0" encoding="utf-8"?>
<!-- Generator: Adobe Illustrator 18.0.0, SVG Export Plug-In . SVG Version: 6.00 Build 0)  -->
<!DOCTYPE svg PUBLIC "-//W3C//DTD SVG 1.1//EN" "http://www.w3.org/Graphics/SVG/1.1/DTD/svg11.dtd">
<svg version="1.1" xmlns="http://www.w3.org/2000/svg" xmlns:xlink="http://www.w3.org/1999/xlink" x="0px" y="0px"
	 viewBox="0 0 30 30" enable-background="new 0 0 30 30" xml:space="preserve">
<g id="Background_xA0_Image_1_">
</g>
<g id="Row_1_1_">
	<g>
		<path d="M12.1,13.9c0,0,2.8-0.2,2.8-3.7C15,6.7,12.6,5,9.7,5H0v19.4h9.7c0,0,5.9,0.2,5.9-5.7C15.6,18.7,15.9,13.9,12.1,13.9z
			 M4.3,8.4h5.4c0,0,1.3,0,1.3,2c0,2-0.8,2.3-1.7,2.3H4.3V8.4z M9.4,20.9H4.3v-5.2h5.4c0,0,2,0,2,2.7C11.6,20.7,10.2,20.9,9.4,20.9z
			 M23.5,9.9c-7.2,0-7.2,7.5-7.2,7.5s-0.5,7.4,7.2,7.4c0,0,6.4,0.4,6.4-5.2h-3.3c0,0,0.1,2.1-3,2.1c0,0-3.3,0.2-3.3-3.4h9.6
			C29.9,18.3,31,9.9,23.5,9.9z M26.4,15.8h-6.1c0,0,0.4-3,3.3-3S26.4,15.8,26.4,15.8z M27.2,6.1h-7.7v2.4h7.7V6.1z"/>
	</g>
</g>
</svg>
