<?xml version="1.0" encoding="UTF-8" standalone="no"?><svg xmlns="http://www.w3.org/2000/svg" xmlns:xlink="http://www.w3.org/1999/xlink" contentStyleType="text/css" height="472px" preserveAspectRatio="none" style="width:809px;height:472px;background:#FFFFFF7F;" version="1.1" viewBox="0 0 809 472" width="809px" zoomAndPan="magnify"><defs/><g><rect fill="#FFFFFF" height="60.7422" rx="12.5" ry="12.5" style="stroke:#181818;stroke-width:1.5;" width="159" x="323" y="204.8164"/><text fill="#000000" font-family="sans-serif" font-size="35" lengthAdjust="spacing" textLength="139" x="333" y="247.3042">FlexBox</text><rect fill="#9ACD32" height="37.4609" rx="12.5" ry="12.5" style="stroke:#181818;stroke-width:1.5;" width="74" x="532" y="158.9961"/><text fill="#000000" font-family="sans-serif" font-size="15" lengthAdjust="spacing" textLength="49" x="542" y="182.9194">display</text><path d="M482,235.1875 L492,235.1875 C507,235.1875 507,177.7266 522,177.7266 L532,177.7266 " fill="none" style="stroke:#181818;stroke-width:1.0;"/><rect fill="#FFFFE0" height="37.4609" rx="12.5" ry="12.5" style="stroke:#181818;stroke-width:1.5;" width="93" x="532" y="216.457"/><text fill="#000000" font-family="sans-serif" font-size="15" lengthAdjust="spacing" textLength="73" x="542" y="240.3804">Alignment</text><rect fill="#9ACD32" height="36.2969" rx="12.5" ry="12.5" style="stroke:#181818;stroke-width:1.5;" width="122" x="675" y="132.5938"/><text fill="#000000" font-family="sans-serif" font-size="14" lengthAdjust="spacing" textLength="98" x="685" y="155.5889">justify-content</text><path d="M625,235.1875 L635,235.1875 C650,235.1875 650,150.7422 665,150.7422 L675,150.7422 " fill="none" style="stroke:#181818;stroke-width:1.0;"/><rect fill="#9ACD32" height="36.2969" rx="12.5" ry="12.5" style="stroke:#181818;stroke-width:1.5;" width="115" x="675" y="188.8906"/><text fill="#000000" font-family="sans-serif" font-size="14" lengthAdjust="spacing" textLength="91" x="685" y="211.8857">align-content</text><path d="M625,235.1875 L635,235.1875 C650,235.1875 650,207.0391 665,207.0391 L675,207.0391 " fill="none" style="stroke:#181818;stroke-width:1.0;"/><rect fill="#9ACD32" height="36.2969" rx="12.5" ry="12.5" style="stroke:#181818;stroke-width:1.5;" width="99" x="675" y="245.1875"/><text fill="#000000" font-family="sans-serif" font-size="14" lengthAdjust="spacing" textLength="75" x="685" y="268.1826">align-items</text><path d="M625,235.1875 L635,235.1875 C650,235.1875 650,263.3359 665,263.3359 L675,263.3359 " fill="none" style="stroke:#181818;stroke-width:1.0;"/><rect fill="#87CEEB" height="36.2969" rx="12.5" ry="12.5" style="stroke:#181818;stroke-width:1.5;" width="85" x="675" y="301.4844"/><text fill="#000000" font-family="sans-serif" font-size="14" lengthAdjust="spacing" textLength="61" x="685" y="324.4795">align-self</text><path d="M625,235.1875 L635,235.1875 C650,235.1875 650,319.6328 665,319.6328 L675,319.6328 " fill="none" style="stroke:#181818;stroke-width:1.0;"/><path d="M482,235.1875 L492,235.1875 C507,235.1875 507,235.1875 522,235.1875 L532,235.1875 " fill="none" style="stroke:#181818;stroke-width:1.0;"/><rect fill="#FFFFE0" height="37.4609" rx="12.5" ry="12.5" style="stroke:#181818;stroke-width:1.5;" width="101" x="172" y="103.8633"/><text fill="#000000" font-family="sans-serif" font-size="15" lengthAdjust="spacing" textLength="81" x="182" y="127.7866">Orientation</text><rect fill="#9ACD32" height="36.2969" rx="12.5" ry="12.5" style="stroke:#181818;stroke-width:1.5;" width="112" x="10" y="20"/><text fill="#000000" font-family="sans-serif" font-size="14" lengthAdjust="spacing" textLength="88" x="20" y="42.9951">flex-direction</text><path d="M172,122.5938 L162,122.5938 C147,122.5938 147,38.1484 132,38.1484 L122,38.1484 " fill="none" style="stroke:#181818;stroke-width:1.0;"/><rect fill="#9ACD32" height="36.2969" rx="12.5" ry="12.5" style="stroke:#181818;stroke-width:1.5;" width="85" x="37" y="76.2969"/><text fill="#000000" font-family="sans-serif" font-size="14" lengthAdjust="spacing" textLength="61" x="47" y="99.292">flex-wrap</text><path d="M172,122.5938 L162,122.5938 C147,122.5938 147,94.4453 132,94.4453 L122,94.4453 " fill="none" style="stroke:#181818;stroke-width:1.0;"/><rect fill="#9ACD32" height="36.2969" rx="12.5" ry="12.5" style="stroke:#181818;stroke-width:1.5;" width="79" x="43" y="132.5938"/><text fill="#000000" font-family="sans-serif" font-size="14" lengthAdjust="spacing" textLength="55" x="53" y="155.5889">flex-flow</text><path d="M172,122.5938 L162,122.5938 C147,122.5938 147,150.7422 132,150.7422 L122,150.7422 " fill="none" style="stroke:#181818;stroke-width:1.0;"/><rect fill="#87CEEB" height="36.2969" rx="12.5" ry="12.5" style="stroke:#181818;stroke-width:1.5;" width="61" x="61" y="188.8906"/><text fill="#000000" font-family="sans-serif" font-size="14" lengthAdjust="spacing" textLength="37" x="71" y="211.8857">order</text><path d="M172,122.5938 L162,122.5938 C147,122.5938 147,207.0391 132,207.0391 L122,207.0391 " fill="none" style="stroke:#181818;stroke-width:1.0;"/><path d="M323,235.1875 L313,235.1875 C298,235.1875 298,122.5938 283,122.5938 L273,122.5938 " fill="none" style="stroke:#181818;stroke-width:1.0;"/><rect fill="#FFFFE0" height="37.4609" rx="12.5" ry="12.5" style="stroke:#181818;stroke-width:1.5;" width="86" x="187" y="329.0508"/><text fill="#000000" font-family="sans-serif" font-size="15" lengthAdjust="spacing" textLength="66" x="197" y="352.9741">Flexibility</text><rect fill="#87CEEB" height="36.2969" rx="12.5" ry="12.5" style="stroke:#181818;stroke-width:1.5;" width="86" x="51" y="245.1875"/><text fill="#000000" font-family="sans-serif" font-size="14" lengthAdjust="spacing" textLength="62" x="61" y="268.1826">flex-grow</text><path d="M187,347.7813 L177,347.7813 C162,347.7813 162,263.3359 147,263.3359 L137,263.3359 " fill="none" style="stroke:#181818;stroke-width:1.0;"/><rect fill="#87CEEB" height="36.2969" rx="12.5" ry="12.5" style="stroke:#181818;stroke-width:1.5;" width="94" x="43" y="301.4844"/><text fill="#000000" font-family="sans-serif" font-size="14" lengthAdjust="spacing" textLength="70" x="53" y="324.4795">flex-shrink</text><path d="M187,347.7813 L177,347.7813 C162,347.7813 162,319.6328 147,319.6328 L137,319.6328 " fill="none" style="stroke:#181818;stroke-width:1.0;"/><rect fill="#87CEEB" height="36.2969" rx="12.5" ry="12.5" style="stroke:#181818;stroke-width:1.5;" width="88" x="49" y="357.7813"/><text fill="#000000" font-family="sans-serif" font-size="14" lengthAdjust="spacing" textLength="64" x="59" y="380.7764">flex-basis</text><path d="M187,347.7813 L177,347.7813 C162,347.7813 162,375.9297 147,375.9297 L137,375.9297 " fill="none" style="stroke:#181818;stroke-width:1.0;"/><rect fill="#87CEEB" height="36.2969" rx="12.5" ry="12.5" style="stroke:#181818;stroke-width:1.5;" width="47" x="90" y="414.0781"/><text fill="#000000" font-family="sans-serif" font-size="14" lengthAdjust="spacing" textLength="23" x="100" y="437.0732">flex</text><path d="M187,347.7813 L177,347.7813 C162,347.7813 162,432.2266 147,432.2266 L137,432.2266 " fill="none" style="stroke:#181818;stroke-width:1.0;"/><path d="M323,235.1875 L313,235.1875 C298,235.1875 298,347.7813 283,347.7813 L273,347.7813 " fill="none" style="stroke:#181818;stroke-width:1.0;"/><!--MD5=[b341a0f3a60f49c1dd772f52adcfe350]
@startmindmap
<style>
mindmapDiagram {
  Node {
    BackGroundColor white
  }
  rootNode {
    FontSize 35
  }
  :depth(1) {
    FontSize 15
    BackGroundColor LightYellow
  }
  .containerStyle * {
    BackgroundColor YellowGreen
  }
  .itemStyle * {
    BackgroundColor SkyBlue
  }
}
</style>
+ FlexBox
' ++ W3C TR
' +++_ CSS Flexible Box Layout Module Level 1 https://www.w3.org/TR/css-flexbox-1/
' +++_ CSS Box Alignment Module Level 3 https://www.w3.org/TR/css-align-3/
- - Orientation
- - - flex-direction <<containerStyle>>
- - - flex-wrap <<containerStyle>>
- - - flex-flow <<containerStyle>>
- - - order <<itemStyle>>
- - Flexibility
- - - flex-grow <<itemStyle>>
- - - flex-shrink <<itemStyle>>
- - - flex-basis <<itemStyle>>
- - - flex <<itemStyle>>
++ display <<containerStyle>>
++ Alignment
+++ justify-content <<containerStyle>>
+++ align-content <<containerStyle>>
+++ align-items <<containerStyle>>
+++ align-self <<itemStyle>>
@endmindmap

@startmindmap
<style>
mindmapDiagram {
  Node {
    BackGroundColor white
  }
  rootNode {
    FontSize 35
  }
  :depth(1) {
    FontSize 15
    BackGroundColor LightYellow
  }
  .containerStyle * {
    BackgroundColor YellowGreen
  }
  .itemStyle * {
    BackgroundColor SkyBlue
  }
}
</style>
+ FlexBox
- - Orientation
- - - flex-direction <<containerStyle>>
- - - flex-wrap <<containerStyle>>
- - - flex-flow <<containerStyle>>
- - - order <<itemStyle>>
- - Flexibility
- - - flex-grow <<itemStyle>>
- - - flex-shrink <<itemStyle>>
- - - flex-basis <<itemStyle>>
- - - flex <<itemStyle>>
++ display <<containerStyle>>
++ Alignment
+++ justify-content <<containerStyle>>
+++ align-content <<containerStyle>>
+++ align-items <<containerStyle>>
+++ align-self <<itemStyle>>
@endmindmap

PlantUML version 1.2022.7(Mon Aug 22 14:01:30 BRT 2022)
(GPL source distribution)
Java Runtime: OpenJDK Runtime Environment
JVM: OpenJDK 64-Bit Server VM
Default Encoding: UTF-8
Language: en
Country: null
--></g></svg>
