<?xml version="1.0" encoding="UTF-8" standalone="no"?><svg xmlns="http://www.w3.org/2000/svg" xmlns:xlink="http://www.w3.org/1999/xlink" contentStyleType="text/css" height="979px" preserveAspectRatio="none" style="width:1040px;height:979px;background:#FFFFFF7F;" version="1.1" viewBox="0 0 1040 979" width="1040px" zoomAndPan="magnify"><defs/><g><rect fill="#FFFFFF" height="60.7422" rx="12.5" ry="12.5" style="stroke:#181818;stroke-width:1.5;" width="93" x="494" y="458.1523"/><text fill="#000000" font-family="sans-serif" font-size="35" lengthAdjust="spacing" textLength="73" x="504" y="500.6401">Grid</text><rect fill="#9ACD32" height="37.4609" rx="12.5" ry="12.5" style="stroke:#181818;stroke-width:1.5;" width="74" x="637" y="412.332"/><text fill="#000000" font-family="sans-serif" font-size="15" lengthAdjust="spacing" textLength="49" x="647" y="436.2554">display</text><path d="M587,488.5234 L597,488.5234 C612,488.5234 612,431.0625 627,431.0625 L637,431.0625 " fill="none" style="stroke:#181818;stroke-width:1.0;"/><rect fill="#FFFFE0" height="37.4609" rx="12.5" ry="12.5" style="stroke:#181818;stroke-width:1.5;" width="93" x="637" y="469.793"/><text fill="#000000" font-family="sans-serif" font-size="15" lengthAdjust="spacing" textLength="73" x="647" y="493.7163">Alignment</text><rect fill="#FFFFE0" height="36.2969" rx="12.5" ry="12.5" style="stroke:#181818;stroke-width:1.5;" width="76" x="780" y="301.4844"/><text fill="#000000" font-family="sans-serif" font-size="14" lengthAdjust="spacing" textLength="56" x="790" y="324.4795">Content</text><rect fill="#9ACD32" height="36.2969" rx="12.5" ry="12.5" style="stroke:#181818;stroke-width:1.5;" width="122" x="906" y="245.1875"/><text fill="#000000" font-family="sans-serif" font-size="14" lengthAdjust="spacing" textLength="98" x="916" y="268.1826">justify-content</text><path d="M856,319.6328 L866,319.6328 C881,319.6328 881,263.3359 896,263.3359 L906,263.3359 " fill="none" style="stroke:#181818;stroke-width:1.0;"/><rect fill="#9ACD32" height="36.2969" rx="12.5" ry="12.5" style="stroke:#181818;stroke-width:1.5;" width="115" x="906" y="301.4844"/><text fill="#000000" font-family="sans-serif" font-size="14" lengthAdjust="spacing" textLength="91" x="916" y="324.4795">align-content</text><path d="M856,319.6328 L866,319.6328 C881,319.6328 881,319.6328 896,319.6328 L906,319.6328 " fill="none" style="stroke:#181818;stroke-width:1.0;"/><rect fill="#9ACD32" height="36.2969" rx="12.5" ry="12.5" style="stroke:#181818;stroke-width:1.5;" width="120" x="906" y="357.7813"/><text fill="#000000" font-family="sans-serif" font-size="14" lengthAdjust="spacing" textLength="96" x="916" y="380.7764">place-content</text><path d="M856,319.6328 L866,319.6328 C881,319.6328 881,375.9297 896,375.9297 L906,375.9297 " fill="none" style="stroke:#181818;stroke-width:1.0;"/><path d="M730,488.5234 L740,488.5234 C755,488.5234 755,319.6328 770,319.6328 L780,319.6328 " fill="none" style="stroke:#181818;stroke-width:1.0;"/><rect fill="#FFFFE0" height="36.2969" rx="12.5" ry="12.5" style="stroke:#181818;stroke-width:1.5;" width="58" x="780" y="470.375"/><text fill="#000000" font-family="sans-serif" font-size="14" lengthAdjust="spacing" textLength="38" x="790" y="493.3701">Items</text><rect fill="#9ACD32" height="36.2969" rx="12.5" ry="12.5" style="stroke:#181818;stroke-width:1.5;" width="106" x="888" y="414.0781"/><text fill="#000000" font-family="sans-serif" font-size="14" lengthAdjust="spacing" textLength="82" x="898" y="437.0732">justify-items</text><path d="M838,488.5234 L848,488.5234 C863,488.5234 863,432.2266 878,432.2266 L888,432.2266 " fill="none" style="stroke:#181818;stroke-width:1.0;"/><rect fill="#9ACD32" height="36.2969" rx="12.5" ry="12.5" style="stroke:#181818;stroke-width:1.5;" width="99" x="888" y="470.375"/><text fill="#000000" font-family="sans-serif" font-size="14" lengthAdjust="spacing" textLength="75" x="898" y="493.3701">align-items</text><path d="M838,488.5234 L848,488.5234 C863,488.5234 863,488.5234 878,488.5234 L888,488.5234 " fill="none" style="stroke:#181818;stroke-width:1.0;"/><rect fill="#9ACD32" height="36.2969" rx="12.5" ry="12.5" style="stroke:#181818;stroke-width:1.5;" width="104" x="888" y="526.6719"/><text fill="#000000" font-family="sans-serif" font-size="14" lengthAdjust="spacing" textLength="80" x="898" y="549.667">place-items</text><path d="M838,488.5234 L848,488.5234 C863,488.5234 863,544.8203 878,544.8203 L888,544.8203 " fill="none" style="stroke:#181818;stroke-width:1.0;"/><path d="M730,488.5234 L740,488.5234 C755,488.5234 755,488.5234 770,488.5234 L780,488.5234 " fill="none" style="stroke:#181818;stroke-width:1.0;"/><rect fill="#FFFFE0" height="36.2969" rx="12.5" ry="12.5" style="stroke:#181818;stroke-width:1.5;" width="45" x="780" y="639.2656"/><text fill="#000000" font-family="sans-serif" font-size="14" lengthAdjust="spacing" textLength="25" x="790" y="662.2607">Self</text><rect fill="#87CEEB" height="36.2969" rx="12.5" ry="12.5" style="stroke:#181818;stroke-width:1.5;" width="92" x="875" y="582.9688"/><text fill="#000000" font-family="sans-serif" font-size="14" lengthAdjust="spacing" textLength="68" x="885" y="605.9639">justify-self</text><path d="M825,657.4141 L835,657.4141 C850,657.4141 850,601.1172 865,601.1172 L875,601.1172 " fill="none" style="stroke:#181818;stroke-width:1.0;"/><rect fill="#87CEEB" height="36.2969" rx="12.5" ry="12.5" style="stroke:#181818;stroke-width:1.5;" width="85" x="875" y="639.2656"/><text fill="#000000" font-family="sans-serif" font-size="14" lengthAdjust="spacing" textLength="61" x="885" y="662.2607">align-self</text><path d="M825,657.4141 L835,657.4141 C850,657.4141 850,657.4141 865,657.4141 L875,657.4141 " fill="none" style="stroke:#181818;stroke-width:1.0;"/><rect fill="#87CEEB" height="36.2969" rx="12.5" ry="12.5" style="stroke:#181818;stroke-width:1.5;" width="90" x="875" y="695.5625"/><text fill="#000000" font-family="sans-serif" font-size="14" lengthAdjust="spacing" textLength="66" x="885" y="718.5576">place-self</text><path d="M825,657.4141 L835,657.4141 C850,657.4141 850,713.7109 865,713.7109 L875,713.7109 " fill="none" style="stroke:#181818;stroke-width:1.0;"/><path d="M730,488.5234 L740,488.5234 C755,488.5234 755,657.4141 770,657.4141 L780,657.4141 " fill="none" style="stroke:#181818;stroke-width:1.0;"/><path d="M587,488.5234 L597,488.5234 C612,488.5234 612,488.5234 627,488.5234 L637,488.5234 " fill="none" style="stroke:#181818;stroke-width:1.0;"/><rect fill="#FFFFE0" height="37.4609" rx="12.5" ry="12.5" style="stroke:#181818;stroke-width:1.5;" width="69" x="375" y="469.793"/><text fill="#000000" font-family="sans-serif" font-size="15" lengthAdjust="spacing" textLength="49" x="385" y="493.7163">Layout</text><rect fill="#9ACD32" height="36.2969" rx="12.5" ry="12.5" style="stroke:#181818;stroke-width:1.5;" width="50" x="275" y="76.2969"/><text fill="#000000" font-family="sans-serif" font-size="14" lengthAdjust="spacing" textLength="26" x="285" y="99.292">grid</text><path d="M375,488.5234 L365,488.5234 C350,488.5234 350,94.4453 335,94.4453 L325,94.4453 " fill="none" style="stroke:#181818;stroke-width:1.0;"/><rect fill="#FFFFE0" height="36.2969" rx="12.5" ry="12.5" style="stroke:#181818;stroke-width:1.5;" width="85" x="240" y="132.5938"/><text fill="#000000" font-family="sans-serif" font-size="14" lengthAdjust="spacing" textLength="65" x="250" y="155.5889">Template</text><rect fill="#9ACD32" height="36.2969" rx="12.5" ry="12.5" style="stroke:#181818;stroke-width:1.5;" width="116" x="74" y="20"/><text fill="#000000" font-family="sans-serif" font-size="14" lengthAdjust="spacing" textLength="92" x="84" y="42.9951">grid-template</text><path d="M240,150.7422 L230,150.7422 C215,150.7422 215,38.1484 200,38.1484 L190,38.1484 " fill="none" style="stroke:#181818;stroke-width:1.0;"/><rect fill="#9ACD32" height="36.2969" rx="12.5" ry="12.5" style="stroke:#181818;stroke-width:1.5;" width="180" x="10" y="76.2969"/><text fill="#000000" font-family="sans-serif" font-size="14" lengthAdjust="spacing" textLength="156" x="20" y="99.292">grid-template-columns</text><path d="M240,150.7422 L230,150.7422 C215,150.7422 215,94.4453 200,94.4453 L190,94.4453 " fill="none" style="stroke:#181818;stroke-width:1.0;"/><rect fill="#9ACD32" height="36.2969" rx="12.5" ry="12.5" style="stroke:#181818;stroke-width:1.5;" width="154" x="36" y="132.5938"/><text fill="#000000" font-family="sans-serif" font-size="14" lengthAdjust="spacing" textLength="130" x="46" y="155.5889">grid-template-rows</text><path d="M240,150.7422 L230,150.7422 C215,150.7422 215,150.7422 200,150.7422 L190,150.7422 " fill="none" style="stroke:#181818;stroke-width:1.0;"/><rect fill="#9ACD32" height="36.2969" rx="12.5" ry="12.5" style="stroke:#181818;stroke-width:1.5;" width="159" x="31" y="188.8906"/><text fill="#000000" font-family="sans-serif" font-size="14" lengthAdjust="spacing" textLength="135" x="41" y="211.8857">grid-template-areas</text><path d="M240,150.7422 L230,150.7422 C215,150.7422 215,207.0391 200,207.0391 L190,207.0391 " fill="none" style="stroke:#181818;stroke-width:1.0;"/><rect fill="#87CEEB" height="36.2969" rx="12.5" ry="12.5" style="stroke:#181818;stroke-width:1.5;" width="85" x="105" y="245.1875"/><text fill="#000000" font-family="sans-serif" font-size="14" lengthAdjust="spacing" textLength="61" x="115" y="268.1826">grid-area</text><path d="M240,150.7422 L230,150.7422 C215,150.7422 215,263.3359 200,263.3359 L190,263.3359 " fill="none" style="stroke:#181818;stroke-width:1.0;"/><path d="M375,488.5234 L365,488.5234 C350,488.5234 350,150.7422 335,150.7422 L325,150.7422 " fill="none" style="stroke:#181818;stroke-width:1.0;"/><rect fill="#FFFFE0" height="36.2969" rx="12.5" ry="12.5" style="stroke:#181818;stroke-width:1.5;" width="50" x="275" y="357.7813"/><text fill="#000000" font-family="sans-serif" font-size="14" lengthAdjust="spacing" textLength="30" x="285" y="380.7764">Row</text><rect fill="#87CEEB" height="36.2969" rx="12.5" ry="12.5" style="stroke:#181818;stroke-width:1.5;" width="80" x="145" y="301.4844"/><text fill="#000000" font-family="sans-serif" font-size="14" lengthAdjust="spacing" textLength="56" x="155" y="324.4795">grid-row</text><path d="M275,375.9297 L265,375.9297 C250,375.9297 250,319.6328 235,319.6328 L225,319.6328 " fill="none" style="stroke:#181818;stroke-width:1.0;"/><rect fill="#87CEEB" height="36.2969" rx="12.5" ry="12.5" style="stroke:#181818;stroke-width:1.5;" width="116" x="109" y="357.7813"/><text fill="#000000" font-family="sans-serif" font-size="14" lengthAdjust="spacing" textLength="92" x="119" y="380.7764">grid-row-start</text><path d="M275,375.9297 L265,375.9297 C250,375.9297 250,375.9297 235,375.9297 L225,375.9297 " fill="none" style="stroke:#181818;stroke-width:1.0;"/><rect fill="#87CEEB" height="36.2969" rx="12.5" ry="12.5" style="stroke:#181818;stroke-width:1.5;" width="112" x="113" y="414.0781"/><text fill="#000000" font-family="sans-serif" font-size="14" lengthAdjust="spacing" textLength="88" x="123" y="437.0732">grid-row-end</text><path d="M275,375.9297 L265,375.9297 C250,375.9297 250,432.2266 235,432.2266 L225,432.2266 " fill="none" style="stroke:#181818;stroke-width:1.0;"/><path d="M375,488.5234 L365,488.5234 C350,488.5234 350,375.9297 335,375.9297 L325,375.9297 " fill="none" style="stroke:#181818;stroke-width:1.0;"/><rect fill="#FFFFE0" height="36.2969" rx="12.5" ry="12.5" style="stroke:#181818;stroke-width:1.5;" width="73" x="252" y="526.6719"/><text fill="#000000" font-family="sans-serif" font-size="14" lengthAdjust="spacing" textLength="53" x="262" y="549.667">Column</text><rect fill="#87CEEB" height="36.2969" rx="12.5" ry="12.5" style="stroke:#181818;stroke-width:1.5;" width="106" x="96" y="470.375"/><text fill="#000000" font-family="sans-serif" font-size="14" lengthAdjust="spacing" textLength="82" x="106" y="493.3701">grid-column</text><path d="M252,544.8203 L242,544.8203 C227,544.8203 227,488.5234 212,488.5234 L202,488.5234 " fill="none" style="stroke:#181818;stroke-width:1.0;"/><rect fill="#87CEEB" height="36.2969" rx="12.5" ry="12.5" style="stroke:#181818;stroke-width:1.5;" width="142" x="60" y="526.6719"/><text fill="#000000" font-family="sans-serif" font-size="14" lengthAdjust="spacing" textLength="118" x="70" y="549.667">grid-column-start</text><path d="M252,544.8203 L242,544.8203 C227,544.8203 227,544.8203 212,544.8203 L202,544.8203 " fill="none" style="stroke:#181818;stroke-width:1.0;"/><rect fill="#87CEEB" height="36.2969" rx="12.5" ry="12.5" style="stroke:#181818;stroke-width:1.5;" width="138" x="64" y="582.9688"/><text fill="#000000" font-family="sans-serif" font-size="14" lengthAdjust="spacing" textLength="114" x="74" y="605.9639">grid-column-end</text><path d="M252,544.8203 L242,544.8203 C227,544.8203 227,601.1172 212,601.1172 L202,601.1172 " fill="none" style="stroke:#181818;stroke-width:1.0;"/><path d="M375,488.5234 L365,488.5234 C350,488.5234 350,544.8203 335,544.8203 L325,544.8203 " fill="none" style="stroke:#181818;stroke-width:1.0;"/><rect fill="#FFFFE0" height="36.2969" rx="12.5" ry="12.5" style="stroke:#181818;stroke-width:1.5;" width="52" x="273" y="695.5625"/><text fill="#000000" font-family="sans-serif" font-size="14" lengthAdjust="spacing" textLength="32" x="283" y="718.5576">Auto</text><rect fill="#9ACD32" height="36.2969" rx="12.5" ry="12.5" style="stroke:#181818;stroke-width:1.5;" width="118" x="105" y="639.2656"/><text fill="#000000" font-family="sans-serif" font-size="14" lengthAdjust="spacing" textLength="94" x="115" y="662.2607">grid-auto-flow</text><path d="M273,713.7109 L263,713.7109 C248,713.7109 248,657.4141 233,657.4141 L223,657.4141 " fill="none" style="stroke:#181818;stroke-width:1.0;"/><rect fill="#9ACD32" height="36.2969" rx="12.5" ry="12.5" style="stroke:#181818;stroke-width:1.5;" width="124" x="99" y="695.5625"/><text fill="#000000" font-family="sans-serif" font-size="14" lengthAdjust="spacing" textLength="100" x="109" y="718.5576">grid-auto-rows</text><path d="M273,713.7109 L263,713.7109 C248,713.7109 248,713.7109 233,713.7109 L223,713.7109 " fill="none" style="stroke:#181818;stroke-width:1.0;"/><rect fill="#9ACD32" height="36.2969" rx="12.5" ry="12.5" style="stroke:#181818;stroke-width:1.5;" width="150" x="73" y="751.8594"/><text fill="#000000" font-family="sans-serif" font-size="14" lengthAdjust="spacing" textLength="126" x="83" y="774.8545">grid-auto-columns</text><path d="M273,713.7109 L263,713.7109 C248,713.7109 248,770.0078 233,770.0078 L223,770.0078 " fill="none" style="stroke:#181818;stroke-width:1.0;"/><path d="M375,488.5234 L365,488.5234 C350,488.5234 350,713.7109 335,713.7109 L325,713.7109 " fill="none" style="stroke:#181818;stroke-width:1.0;"/><rect fill="#FFFFE0" height="36.2969" rx="12.5" ry="12.5" style="stroke:#181818;stroke-width:1.5;" width="48" x="277" y="864.4531"/><text fill="#000000" font-family="sans-serif" font-size="14" lengthAdjust="spacing" textLength="28" x="287" y="887.4482">Gap</text><rect fill="#9ACD32" height="36.2969" rx="12.5" ry="12.5" style="stroke:#181818;stroke-width:1.5;" width="81" x="146" y="808.1563"/><text fill="#000000" font-family="sans-serif" font-size="14" lengthAdjust="spacing" textLength="57" x="156" y="831.1514">grid-gap</text><path d="M277,882.6016 L267,882.6016 C252,882.6016 252,826.3047 237,826.3047 L227,826.3047 " fill="none" style="stroke:#181818;stroke-width:1.0;"/><rect fill="#9ACD32" height="36.2969" rx="12.5" ry="12.5" style="stroke:#181818;stroke-width:1.5;" width="111" x="116" y="864.4531"/><text fill="#000000" font-family="sans-serif" font-size="14" lengthAdjust="spacing" textLength="87" x="126" y="887.4482">grid-row-gap</text><path d="M277,882.6016 L267,882.6016 C252,882.6016 252,882.6016 237,882.6016 L227,882.6016 " fill="none" style="stroke:#181818;stroke-width:1.0;"/><rect fill="#9ACD32" height="36.2969" rx="12.5" ry="12.5" style="stroke:#181818;stroke-width:1.5;" width="137" x="90" y="920.75"/><text fill="#000000" font-family="sans-serif" font-size="14" lengthAdjust="spacing" textLength="113" x="100" y="943.7451">grid-column-gap</text><path d="M277,882.6016 L267,882.6016 C252,882.6016 252,938.8984 237,938.8984 L227,938.8984 " fill="none" style="stroke:#181818;stroke-width:1.0;"/><path d="M375,488.5234 L365,488.5234 C350,488.5234 350,882.6016 335,882.6016 L325,882.6016 " fill="none" style="stroke:#181818;stroke-width:1.0;"/><path d="M494,488.5234 L484,488.5234 C469,488.5234 469,488.5234 454,488.5234 L444,488.5234 " fill="none" style="stroke:#181818;stroke-width:1.0;"/><!--MD5=[630f471563ae0452ca4f2fb3f6f95eab]
@startmindmap
<style>
mindmapDiagram {
  Node {
    BackGroundColor LightYellow
  }
  rootNode {
    FontSize 35
    BackGroundColor white
  }
  :depth(1) {
    FontSize 15
  }
  .containerStyle * {
    BackgroundColor YellowGreen
  }
  .itemStyle * {
    BackgroundColor SkyBlue
  }
}
</style>
+ Grid
' ++ W3C TR
' +++_ CSS Grid Layout Module Level 2 https://www.w3.org/TR/css-grid-2/
' +++_ CSS Box Alignment Module Level 3 https://www.w3.org/TR/css-align-3/
++ display <<containerStyle>>
++ Alignment
+++ Content
++++ justify-content <<containerStyle>>
++++ align-content <<containerStyle>>
++++ place-content <<containerStyle>>
+++ Items
++++ justify-items <<containerStyle>>
++++ align-items <<containerStyle>>
++++ place-items <<containerStyle>>
+++ Self
++++ justify-self <<itemStyle>>
++++ align-self <<itemStyle>>
++++ place-self <<itemStyle>>
- - Layout
- - - grid <<containerStyle>>
- - - Template
- - - - grid-template <<containerStyle>>
- - - - grid-template-columns <<containerStyle>>
- - - - grid-template-rows <<containerStyle>>
- - - - grid-template-areas <<containerStyle>>
- - - - grid-area <<itemStyle>>
- - - Row
- - - - grid-row <<itemStyle>>
- - - - grid-row-start <<itemStyle>>
- - - - grid-row-end <<itemStyle>>
- - - Column
- - - - grid-column <<itemStyle>>
- - - - grid-column-start <<itemStyle>>
- - - - grid-column-end <<itemStyle>>
- - - Auto
- - - - grid-auto-flow <<containerStyle>>
- - - - grid-auto-rows <<containerStyle>>
- - - - grid-auto-columns <<containerStyle>>
- - - Gap
- - - - grid-gap <<containerStyle>>
- - - - grid-row-gap <<containerStyle>>
- - - - grid-column-gap <<containerStyle>>
@endmindmap

@startmindmap
<style>
mindmapDiagram {
  Node {
    BackGroundColor LightYellow
  }
  rootNode {
    FontSize 35
    BackGroundColor white
  }
  :depth(1) {
    FontSize 15
  }
  .containerStyle * {
    BackgroundColor YellowGreen
  }
  .itemStyle * {
    BackgroundColor SkyBlue
  }
}
</style>
+ Grid
++ display <<containerStyle>>
++ Alignment
+++ Content
++++ justify-content <<containerStyle>>
++++ align-content <<containerStyle>>
++++ place-content <<containerStyle>>
+++ Items
++++ justify-items <<containerStyle>>
++++ align-items <<containerStyle>>
++++ place-items <<containerStyle>>
+++ Self
++++ justify-self <<itemStyle>>
++++ align-self <<itemStyle>>
++++ place-self <<itemStyle>>
- - Layout
- - - grid <<containerStyle>>
- - - Template
- - - - grid-template <<containerStyle>>
- - - - grid-template-columns <<containerStyle>>
- - - - grid-template-rows <<containerStyle>>
- - - - grid-template-areas <<containerStyle>>
- - - - grid-area <<itemStyle>>
- - - Row
- - - - grid-row <<itemStyle>>
- - - - grid-row-start <<itemStyle>>
- - - - grid-row-end <<itemStyle>>
- - - Column
- - - - grid-column <<itemStyle>>
- - - - grid-column-start <<itemStyle>>
- - - - grid-column-end <<itemStyle>>
- - - Auto
- - - - grid-auto-flow <<containerStyle>>
- - - - grid-auto-rows <<containerStyle>>
- - - - grid-auto-columns <<containerStyle>>
- - - Gap
- - - - grid-gap <<containerStyle>>
- - - - grid-row-gap <<containerStyle>>
- - - - grid-column-gap <<containerStyle>>
@endmindmap

PlantUML version 1.2022.7(Mon Aug 22 14:01:30 BRT 2022)
(GPL source distribution)
Java Runtime: OpenJDK Runtime Environment
JVM: OpenJDK 64-Bit Server VM
Default Encoding: UTF-8
Language: en
Country: null
--></g></svg>
